{"width": 1280, "version": {"libopenshot": "0.1.3", "openshot-qt": "2.2.0"}, "id": "T0", "clips": [{"crop_height": {"Points": [{"co": {"Y": -1.0, "X": 1.0}, "interpolation": 2}]}, "has_audio": {"Points": [{"co": {"Y": -1.0, "X": 1.0}, "interpolation": 2}]}, "id": "9SGX0I87E5", "perspective_c3_y": {"Points": [{"co": {"Y": -1.0, "X": 1.0}, "interpolation": 2}]}, "crop_width": {"Points": [{"co": {"Y": -1.0, "X": 1.0}, "interpolation": 2}]}, "perspective_c3_x": {"Points": [{"co": {"Y": -1.0, "X": 1.0}, "interpolation": 2}]}, "duration": 210.3331451416016, "perspective_c2_y": {"Points": [{"co": {"Y": -1.0, "X": 1.0}, "interpolation": 2}]}, "crop_y": {"Points": [{"co": {"Y": 0.0, "X": 1.0}, "interpolation": 2}]}, "handles": 0, "perspective_c1_x": {"Points": [{"co": {"Y": -1.0, "X": 1.0}, "interpolation": 2}]}, "anchor": 0, "gravity": 4, "image": "../../../../../../../../usr/lib/python3/dist-packages/openshot_qt/images/AudioThumbnail.png", "title": "audio03.wav", "location_y": {"Points": [{"co": {"Y": 0.0, "X": 1.0}, "interpolation": 2}]}, "start": 0, "scale": 1, "position": 0, "channel_mapping": {"Points": [{"co": {"Y": -1.0, "X": 1.0}, "interpolation": 2}]}, "alpha": {"Points": [{"co": {"Y": 1.0, "X": 1.0}, "interpolation": 2}]}, "rotation": {"Points": [{"co": {"Y": 0.0, "X": 1.0}, "interpolation": 2}]}, "volume": {"Points": [{"co": {"Y": 1.0, "X": 1.0}, "interpolation": 2}]}, "file_id": "AJUZJZ9WJA", "shear_x": {"Points": [{"co": {"Y": 0.0, "X": 1.0}, "interpolation": 2}]}, "end": 210.3331451416016, "reader": {"width": 720, "has_audio": true, "height": 480, "fps": {"num": 24, "den": 1}, "duration": 210.3331451416016, "channel_layout": 3, "audio_timebase": {"num": 1, "den": 44100}, "video_length": "5047", "channels": 2, "file_size": "37102812", "video_stream_index": -1, "interlaced_frame": false, "pixel_ratio": {"num": 1, "den": 1}, "sample_rate": 44100, "acodec": "pcm_s16le", "type": "FFmpegReader", "audio_stream_index": 0, "audio_bit_rate": 1411200, "top_field_first": true, "has_single_image": false, "pixel_format": -1, "vcodec": "", "path": "../audio/audio03.wav", "video_timebase": {"num": 1, "den": 24}, "has_video": false, "display_ratio": {"num": 1, "den": 1}, "video_bit_rate": 0}, "wave_color": {"alpha": {"Points": [{"co": {"Y": 255.0, "X": 1.0}, "handle_left": {"Y": 1.0, "X": 0.5}, "interpolation": 0, "handle_right": {"Y": 0.0, "X": 0.5}, "handle_type": 0}]}, "green": {"Points": [{"co": {"Y": 123.0, "X": 1.0}, "handle_left": {"Y": 1.0, "X": 0.5}, "interpolation": 0, "handle_right": {"Y": 0.0, "X": 0.5}, "handle_type": 0}]}, "red": {"Points": [{"co": {"Y": 0.0, "X": 1.0}, "handle_left": {"Y": 1.0, "X": 0.5}, "interpolation": 0, "handle_right": {"Y": 0.0, "X": 0.5}, "handle_type": 0}]}, "blue": {"Points": [{"co": {"Y": 255.0, "X": 1.0}, "handle_left": {"Y": 1.0, "X": 0.5}, "interpolation": 0, "handle_right": {"Y": 0.0, "X": 0.5}, "handle_type": 0}]}}, "location_x": {"Points": [{"co": {"Y": 0.0, "X": 1.0}, "interpolation": 2}]}, "channel_filter": {"Points": [{"co": {"Y": -1.0, "X": 1.0}, "interpolation": 2}]}, "perspective_c1_y": {"Points": [{"co": {"Y": -1.0, "X": 1.0}, "interpolation": 2}]}, "layer": 0, "time": {"Points": [{"co": {"Y": 0.0, "X": 1.0}, "interpolation": 2}]}, "scale_y": {"Points": [{"co": {"Y": 1.0, "X": 1.0}, "interpolation": 2}]}, "perspective_c4_x": {"Points": [{"co": {"Y": -1.0, "X": 1.0}, "interpolation": 2}]}, "crop_x": {"Points": [{"co": {"Y": 0.0, "X": 1.0}, "interpolation": 2}]}, "scale_x": {"Points": [{"co": {"Y": 1.0, "X": 1.0}, "interpolation": 2}]}, "has_video": {"Points": [{"co": {"Y": -1.0, "X": 1.0}, "interpolation": 2}]}, "perspective_c2_x": {"Points": [{"co": {"Y": -1.0, "X": 1.0}, "interpolation": 2}]}, "perspective_c4_y": {"Points": [{"co": {"Y": -1.0, "X": 1.0}, "interpolation": 2}]}, "shear_y": {"Points": [{"co": {"Y": 0.0, "X": 1.0}, "interpolation": 2}]}, "effects": [], "waveform": false}, {"crop_height": {"Points": [{"co": {"Y": -1.0, "X": 1.0}, "interpolation": 2}]}, "has_audio": {"Points": [{"co": {"Y": -1.0, "X": 1.0}, "interpolation": 2}]}, "id": "SG3NXX6TW0", "perspective_c3_y": {"Points": [{"co": {"Y": -1.0, "X": 1.0}, "interpolation": 2}]}, "crop_width": {"Points": [{"co": {"Y": -1.0, "X": 1.0}, "interpolation": 2}]}, "perspective_c3_x": {"Points": [{"co": {"Y": -1.0, "X": 1.0}, "interpolation": 2}]}, "duration": 86400.0, "perspective_c2_y": {"Points": [{"co": {"Y": -1.0, "X": 1.0}, "interpolation": 2}]}, "handles": 0, "perspective_c1_x": {"Points": [{"co": {"Y": -1.0, "X": 1.0}, "interpolation": 2}]}, "crop_y": {"Points": [{"co": {"Y": 0.0, "X": 1.0}, "interpolation": 2}]}, "anchor": 0, "scale_x": {"Points": [{"co": {"Y": 1.0, "X": 1.0}, "interpolation": 2}]}, "image": "../../../../../../.openshot_qt/thumbnail/JOGQVEQ82F.png", "title": "slides-0.png", "file_id": "JOGQVEQ82F", "location_y": {"Points": [{"co": {"Y": 0.0, "X": 1.0}, "interpolation": 2}]}, "start": 0, "scale": 1, "position": 0, "channel_mapping": {"Points": [{"co": {"Y": -1.0, "X": 1.0}, "interpolation": 2}]}, "rotation": {"Points": [{"co": {"Y": 0.0, "X": 1.0}, "interpolation": 2}]}, "volume": {"Points": [{"co": {"Y": 1.0, "X": 1.0}, "interpolation": 2}]}, "alpha": {"Points": [{"co": {"Y": 1.0, "X": 1.0}, "interpolation": 2}]}, "shear_x": {"Points": [{"co": {"Y": 0.0, "X": 1.0}, "interpolation": 2}]}, "end": 7.43, "reader": {"width": 1654, "has_audio": false, "height": 1240, "fps": {"num": 30, "den": 1}, "duration": 86400.0, "channel_layout": 4, "audio_timebase": {"num": 1, "den": 1}, "video_length": "2592000", "channels": 0, "file_size": "8203840", "video_stream_index": -1, "interlaced_frame": false, "pixel_ratio": {"num": 1, "den": 1}, "sample_rate": 0, "acodec": "", "type": "QtImageReader", "audio_stream_index": -1, "audio_bit_rate": 0, "top_field_first": true, "has_single_image": true, "pixel_format": -1, "vcodec": "", "path": "../slides/slides_images/slides-0.png", "video_timebase": {"num": 1, "den": 30}, "has_video": true, "display_ratio": {"num": 827, "den": 620}, "video_bit_rate": 0}, "wave_color": {"alpha": {"Points": [{"co": {"Y": 255.0, "X": 1.0}, "handle_left": {"Y": 1.0, "X": 0.5}, "interpolation": 0, "handle_right": {"Y": 0.0, "X": 0.5}, "handle_type": 0}]}, "green": {"Points": [{"co": {"Y": 123.0, "X": 1.0}, "handle_left": {"Y": 1.0, "X": 0.5}, "interpolation": 0, "handle_right": {"Y": 0.0, "X": 0.5}, "handle_type": 0}]}, "red": {"Points": [{"co": {"Y": 0.0, "X": 1.0}, "handle_left": {"Y": 1.0, "X": 0.5}, "interpolation": 0, "handle_right": {"Y": 0.0, "X": 0.5}, "handle_type": 0}]}, "blue": {"Points": [{"co": {"Y": 255.0, "X": 1.0}, "handle_left": {"Y": 1.0, "X": 0.5}, "interpolation": 0, "handle_right": {"Y": 0.0, "X": 0.5}, "handle_type": 0}]}}, "time": {"Points": [{"co": {"Y": 0.0, "X": 1.0}, "interpolation": 2}]}, "channel_filter": {"Points": [{"co": {"Y": -1.0, "X": 1.0}, "interpolation": 2}]}, "perspective_c1_y": {"Points": [{"co": {"Y": -1.0, "X": 1.0}, "interpolation": 2}]}, "layer": 1, "location_x": {"Points": [{"co": {"Y": 0.0, "X": 1.0}, "interpolation": 2}]}, "waveform": false, "perspective_c4_x": {"Points": [{"co": {"Y": -1.0, "X": 1.0}, "interpolation": 2}]}, "crop_x": {"Points": [{"co": {"Y": 0.0, "X": 1.0}, "interpolation": 2}]}, "scale_y": {"Points": [{"co": {"Y": 1.0, "X": 1.0}, "interpolation": 2}]}, "has_video": {"Points": [{"co": {"Y": -1.0, "X": 1.0}, "interpolation": 2}]}, "perspective_c2_x": {"Points": [{"co": {"Y": -1.0, "X": 1.0}, "interpolation": 2}]}, "perspective_c4_y": {"Points": [{"co": {"Y": -1.0, "X": 1.0}, "interpolation": 2}]}, "shear_y": {"Points": [{"co": {"Y": 0.0, "X": 1.0}, "interpolation": 2}]}, "effects": [], "gravity": 4}, {"crop_height": {"Points": [{"co": {"Y": -1.0, "X": 1.0}, "interpolation": 2}]}, "has_audio": {"Points": [{"co": {"Y": -1.0, "X": 1.0}, "interpolation": 2}]}, "id": "SN2MIDMN4A", "perspective_c3_y": {"Points": [{"co": {"Y": -1.0, "X": 1.0}, "interpolation": 2}]}, "crop_width": {"Points": [{"co": {"Y": -1.0, "X": 1.0}, "interpolation": 2}]}, "perspective_c3_x": {"Points": [{"co": {"Y": -1.0, "X": 1.0}, "interpolation": 2}]}, "duration": 86400.0, "perspective_c2_y": {"Points": [{"co": {"Y": -1.0, "X": 1.0}, "interpolation": 2}]}, "handles": 0, "perspective_c1_x": {"Points": [{"co": {"Y": -1.0, "X": 1.0}, "interpolation": 2}]}, "crop_y": {"Points": [{"co": {"Y": 0.0, "X": 1.0}, "interpolation": 2}]}, "anchor": 0, "scale_x": {"Points": [{"co": {"Y": 1.0, "X": 1.0}, "interpolation": 2}]}, "image": "../../../../../../.openshot_qt/thumbnail/DVT8ZR1JRO.png", "title": "slides-1.png", "file_id": "DVT8ZR1JRO", "location_y": {"Points": [{"co": {"Y": 0.0, "X": 1.0}, "interpolation": 2}]}, "start": 0, "scale": 1, "position": 7.4, "channel_mapping": {"Points": [{"co": {"Y": -1.0, "X": 1.0}, "interpolation": 2}]}, "rotation": {"Points": [{"co": {"Y": 0.0, "X": 1.0}, "interpolation": 2}]}, "volume": {"Points": [{"co": {"Y": 1.0, "X": 1.0}, "interpolation": 2}]}, "alpha": {"Points": [{"co": {"Y": 1.0, "X": 1.0}, "interpolation": 2}]}, "shear_x": {"Points": [{"co": {"Y": 0.0, "X": 1.0}, "interpolation": 2}]}, "end": 15.100000000000001, "reader": {"width": 1654, "has_audio": false, "height": 1240, "fps": {"num": 30, "den": 1}, "duration": 86400.0, "channel_layout": 4, "audio_timebase": {"num": 1, "den": 1}, "video_length": "2592000", "channels": 0, "file_size": "8203840", "video_stream_index": -1, "interlaced_frame": false, "pixel_ratio": {"num": 1, "den": 1}, "sample_rate": 0, "acodec": "", "type": "QtImageReader", "audio_stream_index": -1, "audio_bit_rate": 0, "top_field_first": true, "has_single_image": true, "pixel_format": -1, "vcodec": "", "path": "../slides/slides_images/slides-1.png", "video_timebase": {"num": 1, "den": 30}, "has_video": true, "display_ratio": {"num": 827, "den": 620}, "video_bit_rate": 0}, "wave_color": {"alpha": {"Points": [{"co": {"Y": 255.0, "X": 1.0}, "handle_left": {"Y": 1.0, "X": 0.5}, "interpolation": 0, "handle_right": {"Y": 0.0, "X": 0.5}, "handle_type": 0}]}, "green": {"Points": [{"co": {"Y": 123.0, "X": 1.0}, "handle_left": {"Y": 1.0, "X": 0.5}, "interpolation": 0, "handle_right": {"Y": 0.0, "X": 0.5}, "handle_type": 0}]}, "red": {"Points": [{"co": {"Y": 0.0, "X": 1.0}, "handle_left": {"Y": 1.0, "X": 0.5}, "interpolation": 0, "handle_right": {"Y": 0.0, "X": 0.5}, "handle_type": 0}]}, "blue": {"Points": [{"co": {"Y": 255.0, "X": 1.0}, "handle_left": {"Y": 1.0, "X": 0.5}, "interpolation": 0, "handle_right": {"Y": 0.0, "X": 0.5}, "handle_type": 0}]}}, "time": {"Points": [{"co": {"Y": 0.0, "X": 1.0}, "interpolation": 2}]}, "channel_filter": {"Points": [{"co": {"Y": -1.0, "X": 1.0}, "interpolation": 2}]}, "perspective_c1_y": {"Points": [{"co": {"Y": -1.0, "X": 1.0}, "interpolation": 2}]}, "layer": 1, "location_x": {"Points": [{"co": {"Y": 0.0, "X": 1.0}, "interpolation": 2}]}, "waveform": false, "perspective_c4_x": {"Points": [{"co": {"Y": -1.0, "X": 1.0}, "interpolation": 2}]}, "crop_x": {"Points": [{"co": {"Y": 0.0, "X": 1.0}, "interpolation": 2}]}, "scale_y": {"Points": [{"co": {"Y": 1.0, "X": 1.0}, "interpolation": 2}]}, "has_video": {"Points": [{"co": {"Y": -1.0, "X": 1.0}, "interpolation": 2}]}, "perspective_c2_x": {"Points": [{"co": {"Y": -1.0, "X": 1.0}, "interpolation": 2}]}, "perspective_c4_y": {"Points": [{"co": {"Y": -1.0, "X": 1.0}, "interpolation": 2}]}, "shear_y": {"Points": [{"co": {"Y": 0.0, "X": 1.0}, "interpolation": 2}]}, "effects": [], "gravity": 4}, {"crop_height": {"Points": [{"co": {"Y": -1.0, "X": 1.0}, "interpolation": 2}]}, "has_audio": {"Points": [{"co": {"Y": -1.0, "X": 1.0}, "interpolation": 2}]}, "id": "ZD35RJBNOT", "perspective_c3_y": {"Points": [{"co": {"Y": -1.0, "X": 1.0}, "interpolation": 2}]}, "crop_width": {"Points": [{"co": {"Y": -1.0, "X": 1.0}, "interpolation": 2}]}, "perspective_c3_x": {"Points": [{"co": {"Y": -1.0, "X": 1.0}, "interpolation": 2}]}, "duration": 86400.0, "perspective_c2_y": {"Points": [{"co": {"Y": -1.0, "X": 1.0}, "interpolation": 2}]}, "handles": 0, "crop_y": {"Points": [{"co": {"Y": 0.0, "X": 1.0}, "interpolation": 2}]}, "perspective_c1_x": {"Points": [{"co": {"Y": -1.0, "X": 1.0}, "interpolation": 2}]}, "gravity": 4, "anchor": 0, "scale_x": {"Points": [{"co": {"Y": 1.0, "X": 1.0}, "interpolation": 2}]}, "image": "../../../../../../.openshot_qt/thumbnail/ZF5IVIUVH6.png", "title": "slides-2.png", "file_id": "ZF5IVIUVH6", "reader": {"width": 1654, "has_audio": false, "height": 1240, "fps": {"num": 30, "den": 1}, "duration": 86400.0, "channel_layout": 4, "audio_timebase": {"num": 1, "den": 1}, "audio_bit_rate": 0, "channels": 0, "file_size": "8203840", "video_stream_index": -1, "interlaced_frame": false, "path": "../slides/slides_images/slides-2.png", "pixel_ratio": {"num": 1, "den": 1}, "sample_rate": 0, "acodec": "", "audio_stream_index": -1, "video_length": "2592000", "top_field_first": true, "has_single_image": true, "pixel_format": -1, "vcodec": "", "type": "QtImageReader", "video_timebase": {"num": 1, "den": 30}, "has_video": true, "display_ratio": {"num": 827, "den": 620}, "video_bit_rate": 0}, "start": 0, "scale": 1, "position": 22.125, "channel_mapping": {"Points": [{"co": {"Y": -1.0, "X": 1.0}, "interpolation": 2}]}, "rotation": {"Points": [{"co": {"Y": 0.0, "X": 1.0}, "interpolation": 2}]}, "volume": {"Points": [{"co": {"Y": 1.0, "X": 1.0}, "interpolation": 2}]}, "alpha": {"Points": [{"co": {"Y": 1.0, "X": 1.0}, "interpolation": 2}]}, "shear_x": {"Points": [{"co": {"Y": 0.0, "X": 1.0}, "interpolation": 2}]}, "end": 20.400000000000002, "wave_color": {"alpha": {"Points": [{"co": {"Y": 255.0, "X": 1.0}, "handle_left": {"Y": 1.0, "X": 0.5}, "interpolation": 0, "handle_right": {"Y": 0.0, "X": 0.5}, "handle_type": 0}]}, "green": {"Points": [{"co": {"Y": 123.0, "X": 1.0}, "handle_left": {"Y": 1.0, "X": 0.5}, "interpolation": 0, "handle_right": {"Y": 0.0, "X": 0.5}, "handle_type": 0}]}, "red": {"Points": [{"co": {"Y": 0.0, "X": 1.0}, "handle_left": {"Y": 1.0, "X": 0.5}, "interpolation": 0, "handle_right": {"Y": 0.0, "X": 0.5}, "handle_type": 0}]}, "blue": {"Points": [{"co": {"Y": 255.0, "X": 1.0}, "handle_left": {"Y": 1.0, "X": 0.5}, "interpolation": 0, "handle_right": {"Y": 0.0, "X": 0.5}, "handle_type": 0}]}}, "time": {"Points": [{"co": {"Y": 0.0, "X": 1.0}, "interpolation": 2}]}, "channel_filter": {"Points": [{"co": {"Y": -1.0, "X": 1.0}, "interpolation": 2}]}, "perspective_c1_y": {"Points": [{"co": {"Y": -1.0, "X": 1.0}, "interpolation": 2}]}, "layer": 1, "location_x": {"Points": [{"co": {"Y": 0.0, "X": 1.0}, "interpolation": 2}]}, "waveform": false, "location_y": {"Points": [{"co": {"Y": 0.0, "X": 1.0}, "interpolation": 2}]}, "perspective_c4_x": {"Points": [{"co": {"Y": -1.0, "X": 1.0}, "interpolation": 2}]}, "crop_x": {"Points": [{"co": {"Y": 0.0, "X": 1.0}, "interpolation": 2}]}, "scale_y": {"Points": [{"co": {"Y": 1.0, "X": 1.0}, "interpolation": 2}]}, "has_video": {"Points": [{"co": {"Y": -1.0, "X": 1.0}, "interpolation": 2}]}, "perspective_c2_x": {"Points": [{"co": {"Y": -1.0, "X": 1.0}, "interpolation": 2}]}, "perspective_c4_y": {"Points": [{"co": {"Y": -1.0, "X": 1.0}, "interpolation": 2}]}, "shear_y": {"Points": [{"co": {"Y": 0.0, "X": 1.0}, "interpolation": 2}]}, "effects": []}, {"crop_height": {"Points": [{"co": {"Y": -1.0, "X": 1.0}, "interpolation": 2}]}, "has_audio": {"Points": [{"co": {"Y": -1.0, "X": 1.0}, "interpolation": 2}]}, "id": "E9VN82KY26", "perspective_c3_y": {"Points": [{"co": {"Y": -1.0, "X": 1.0}, "interpolation": 2}]}, "crop_width": {"Points": [{"co": {"Y": -1.0, "X": 1.0}, "interpolation": 2}]}, "perspective_c3_x": {"Points": [{"co": {"Y": -1.0, "X": 1.0}, "interpolation": 2}]}, "duration": 86400.0, "perspective_c2_y": {"Points": [{"co": {"Y": -1.0, "X": 1.0}, "interpolation": 2}]}, "handles": 0, "crop_y": {"Points": [{"co": {"Y": 0.0, "X": 1.0}, "interpolation": 2}]}, "perspective_c1_x": {"Points": [{"co": {"Y": -1.0, "X": 1.0}, "interpolation": 2}]}, "gravity": 4, "anchor": 0, "scale_x": {"Points": [{"co": {"Y": 1.0, "X": 1.0}, "interpolation": 2}]}, "image": "../../../../../../.openshot_qt/thumbnail/I5A0CPS4SN.png", "title": "slides-3.png", "file_id": "I5A0CPS4SN", "reader": {"width": 1654, "has_audio": false, "height": 1240, "fps": {"num": 30, "den": 1}, "duration": 86400.0, "channel_layout": 4, "audio_timebase": {"num": 1, "den": 1}, "audio_bit_rate": 0, "channels": 0, "file_size": "8203840", "video_stream_index": -1, "interlaced_frame": false, "path": "../slides/slides_images/slides-3.png", "pixel_ratio": {"num": 1, "den": 1}, "sample_rate": 0, "acodec": "", "audio_stream_index": -1, "video_length": "2592000", "top_field_first": true, "has_single_image": true, "pixel_format": -1, "vcodec": "", "type": "QtImageReader", "video_timebase": {"num": 1, "den": 30}, "has_video": true, "display_ratio": {"num": 827, "den": 620}, "video_bit_rate": 0}, "start": 0, "scale": 1, "position": 42, "channel_mapping": {"Points": [{"co": {"Y": -1.0, "X": 1.0}, "interpolation": 2}]}, "rotation": {"Points": [{"co": {"Y": 0.0, "X": 1.0}, "interpolation": 2}]}, "volume": {"Points": [{"co": {"Y": 1.0, "X": 1.0}, "interpolation": 2}]}, "alpha": {"Points": [{"co": {"Y": 1.0, "X": 1.0}, "interpolation": 2}]}, "shear_x": {"Points": [{"co": {"Y": 0.0, "X": 1.0}, "interpolation": 2}]}, "end": 19.8, "wave_color": {"alpha": {"Points": [{"co": {"Y": 255.0, "X": 1.0}, "handle_left": {"Y": 1.0, "X": 0.5}, "interpolation": 0, "handle_right": {"Y": 0.0, "X": 0.5}, "handle_type": 0}]}, "green": {"Points": [{"co": {"Y": 123.0, "X": 1.0}, "handle_left": {"Y": 1.0, "X": 0.5}, "interpolation": 0, "handle_right": {"Y": 0.0, "X": 0.5}, "handle_type": 0}]}, "red": {"Points": [{"co": {"Y": 0.0, "X": 1.0}, "handle_left": {"Y": 1.0, "X": 0.5}, "interpolation": 0, "handle_right": {"Y": 0.0, "X": 0.5}, "handle_type": 0}]}, "blue": {"Points": [{"co": {"Y": 255.0, "X": 1.0}, "handle_left": {"Y": 1.0, "X": 0.5}, "interpolation": 0, "handle_right": {"Y": 0.0, "X": 0.5}, "handle_type": 0}]}}, "time": {"Points": [{"co": {"Y": 0.0, "X": 1.0}, "interpolation": 2}]}, "channel_filter": {"Points": [{"co": {"Y": -1.0, "X": 1.0}, "interpolation": 2}]}, "perspective_c1_y": {"Points": [{"co": {"Y": -1.0, "X": 1.0}, "interpolation": 2}]}, "layer": 1, "location_x": {"Points": [{"co": {"Y": 0.0, "X": 1.0}, "interpolation": 2}]}, "waveform": false, "location_y": {"Points": [{"co": {"Y": 0.0, "X": 1.0}, "interpolation": 2}]}, "perspective_c4_x": {"Points": [{"co": {"Y": -1.0, "X": 1.0}, "interpolation": 2}]}, "crop_x": {"Points": [{"co": {"Y": 0.0, "X": 1.0}, "interpolation": 2}]}, "scale_y": {"Points": [{"co": {"Y": 1.0, "X": 1.0}, "interpolation": 2}]}, "has_video": {"Points": [{"co": {"Y": -1.0, "X": 1.0}, "interpolation": 2}]}, "perspective_c2_x": {"Points": [{"co": {"Y": -1.0, "X": 1.0}, "interpolation": 2}]}, "perspective_c4_y": {"Points": [{"co": {"Y": -1.0, "X": 1.0}, "interpolation": 2}]}, "shear_y": {"Points": [{"co": {"Y": 0.0, "X": 1.0}, "interpolation": 2}]}, "effects": []}, {"crop_height": {"Points": [{"co": {"Y": -1.0, "X": 1.0}, "interpolation": 2}]}, "has_audio": {"Points": [{"co": {"Y": -1.0, "X": 1.0}, "interpolation": 2}]}, "id": "9QHQB06QSK", "perspective_c3_y": {"Points": [{"co": {"Y": -1.0, "X": 1.0}, "interpolation": 2}]}, "crop_width": {"Points": [{"co": {"Y": -1.0, "X": 1.0}, "interpolation": 2}]}, "perspective_c3_x": {"Points": [{"co": {"Y": -1.0, "X": 1.0}, "interpolation": 2}]}, "duration": 86400.0, "perspective_c2_y": {"Points": [{"co": {"Y": -1.0, "X": 1.0}, "interpolation": 2}]}, "handles": 0, "crop_y": {"Points": [{"co": {"Y": 0.0, "X": 1.0}, "interpolation": 2}]}, "perspective_c1_x": {"Points": [{"co": {"Y": -1.0, "X": 1.0}, "interpolation": 2}]}, "gravity": 4, "anchor": 0, "scale_x": {"Points": [{"co": {"Y": 1.0, "X": 1.0}, "interpolation": 2}]}, "image": "../../../../../../.openshot_qt/thumbnail/4K86MZCWD0.png", "title": "slides-4.png", "file_id": "4K86MZCWD0", "reader": {"width": 1654, "has_audio": false, "height": 1240, "fps": {"num": 30, "den": 1}, "duration": 86400.0, "channel_layout": 4, "audio_timebase": {"num": 1, "den": 1}, "audio_bit_rate": 0, "channels": 0, "file_size": "8203840", "video_stream_index": -1, "interlaced_frame": false, "path": "../slides/slides_images/slides-4.png", "pixel_ratio": {"num": 1, "den": 1}, "sample_rate": 0, "acodec": "", "audio_stream_index": -1, "video_length": "2592000", "top_field_first": true, "has_single_image": true, "pixel_format": -1, "vcodec": "", "type": "QtImageReader", "video_timebase": {"num": 1, "den": 30}, "has_video": true, "display_ratio": {"num": 827, "den": 620}, "video_bit_rate": 0}, "start": 0, "scale": 1, "position": 61.8, "channel_mapping": {"Points": [{"co": {"Y": -1.0, "X": 1.0}, "interpolation": 2}]}, "rotation": {"Points": [{"co": {"Y": 0.0, "X": 1.0}, "interpolation": 2}]}, "volume": {"Points": [{"co": {"Y": 1.0, "X": 1.0}, "interpolation": 2}]}, "alpha": {"Points": [{"co": {"Y": 1.0, "X": 1.0}, "interpolation": 2}]}, "shear_x": {"Points": [{"co": {"Y": 0.0, "X": 1.0}, "interpolation": 2}]}, "end": 14.399999999999999, "wave_color": {"alpha": {"Points": [{"co": {"Y": 255.0, "X": 1.0}, "handle_left": {"Y": 1.0, "X": 0.5}, "interpolation": 0, "handle_right": {"Y": 0.0, "X": 0.5}, "handle_type": 0}]}, "green": {"Points": [{"co": {"Y": 123.0, "X": 1.0}, "handle_left": {"Y": 1.0, "X": 0.5}, "interpolation": 0, "handle_right": {"Y": 0.0, "X": 0.5}, "handle_type": 0}]}, "red": {"Points": [{"co": {"Y": 0.0, "X": 1.0}, "handle_left": {"Y": 1.0, "X": 0.5}, "interpolation": 0, "handle_right": {"Y": 0.0, "X": 0.5}, "handle_type": 0}]}, "blue": {"Points": [{"co": {"Y": 255.0, "X": 1.0}, "handle_left": {"Y": 1.0, "X": 0.5}, "interpolation": 0, "handle_right": {"Y": 0.0, "X": 0.5}, "handle_type": 0}]}}, "time": {"Points": [{"co": {"Y": 0.0, "X": 1.0}, "interpolation": 2}]}, "channel_filter": {"Points": [{"co": {"Y": -1.0, "X": 1.0}, "interpolation": 2}]}, "perspective_c1_y": {"Points": [{"co": {"Y": -1.0, "X": 1.0}, "interpolation": 2}]}, "layer": 1, "location_x": {"Points": [{"co": {"Y": 0.0, "X": 1.0}, "interpolation": 2}]}, "waveform": false, "location_y": {"Points": [{"co": {"Y": 0.0, "X": 1.0}, "interpolation": 2}]}, "perspective_c4_x": {"Points": [{"co": {"Y": -1.0, "X": 1.0}, "interpolation": 2}]}, "crop_x": {"Points": [{"co": {"Y": 0.0, "X": 1.0}, "interpolation": 2}]}, "scale_y": {"Points": [{"co": {"Y": 1.0, "X": 1.0}, "interpolation": 2}]}, "has_video": {"Points": [{"co": {"Y": -1.0, "X": 1.0}, "interpolation": 2}]}, "perspective_c2_x": {"Points": [{"co": {"Y": -1.0, "X": 1.0}, "interpolation": 2}]}, "perspective_c4_y": {"Points": [{"co": {"Y": -1.0, "X": 1.0}, "interpolation": 2}]}, "shear_y": {"Points": [{"co": {"Y": 0.0, "X": 1.0}, "interpolation": 2}]}, "effects": []}, {"crop_height": {"Points": [{"co": {"Y": -1.0, "X": 1.0}, "interpolation": 2}]}, "has_audio": {"Points": [{"co": {"Y": -1.0, "X": 1.0}, "interpolation": 2}]}, "id": "Y8XDRGDAF9", "perspective_c3_y": {"Points": [{"co": {"Y": -1.0, "X": 1.0}, "interpolation": 2}]}, "crop_width": {"Points": [{"co": {"Y": -1.0, "X": 1.0}, "interpolation": 2}]}, "perspective_c3_x": {"Points": [{"co": {"Y": -1.0, "X": 1.0}, "interpolation": 2}]}, "duration": 86400.0, "perspective_c2_y": {"Points": [{"co": {"Y": -1.0, "X": 1.0}, "interpolation": 2}]}, "handles": 0, "crop_y": {"Points": [{"co": {"Y": 0.0, "X": 1.0}, "interpolation": 2}]}, "perspective_c1_x": {"Points": [{"co": {"Y": -1.0, "X": 1.0}, "interpolation": 2}]}, "gravity": 4, "anchor": 0, "scale_x": {"Points": [{"co": {"Y": 1.0, "X": 1.0}, "interpolation": 2}]}, "image": "../../../../../../.openshot_qt/thumbnail/XG4YAROIKD.png", "title": "slides-5.png", "file_id": "XG4YAROIKD", "reader": {"width": 1654, "has_audio": false, "height": 1240, "fps": {"num": 30, "den": 1}, "duration": 86400.0, "channel_layout": 4, "audio_timebase": {"num": 1, "den": 1}, "audio_bit_rate": 0, "channels": 0, "file_size": "8203840", "video_stream_index": -1, "interlaced_frame": false, "path": "../slides/slides_images/slides-5.png", "pixel_ratio": {"num": 1, "den": 1}, "sample_rate": 0, "acodec": "", "audio_stream_index": -1, "video_length": "2592000", "top_field_first": true, "has_single_image": true, "pixel_format": -1, "vcodec": "", "type": "QtImageReader", "video_timebase": {"num": 1, "den": 30}, "has_video": true, "display_ratio": {"num": 827, "den": 620}, "video_bit_rate": 0}, "start": 0, "scale": 1, "position": 76.58333333333333, "channel_mapping": {"Points": [{"co": {"Y": -1.0, "X": 1.0}, "interpolation": 2}]}, "rotation": {"Points": [{"co": {"Y": 0.0, "X": 1.0}, "interpolation": 2}]}, "volume": {"Points": [{"co": {"Y": 1.0, "X": 1.0}, "interpolation": 2}]}, "alpha": {"Points": [{"co": {"Y": 1.0, "X": 1.0}, "interpolation": 2}]}, "shear_x": {"Points": [{"co": {"Y": 0.0, "X": 1.0}, "interpolation": 2}]}, "end": 15.8, "wave_color": {"alpha": {"Points": [{"co": {"Y": 255.0, "X": 1.0}, "handle_left": {"Y": 1.0, "X": 0.5}, "interpolation": 0, "handle_right": {"Y": 0.0, "X": 0.5}, "handle_type": 0}]}, "green": {"Points": [{"co": {"Y": 123.0, "X": 1.0}, "handle_left": {"Y": 1.0, "X": 0.5}, "interpolation": 0, "handle_right": {"Y": 0.0, "X": 0.5}, "handle_type": 0}]}, "red": {"Points": [{"co": {"Y": 0.0, "X": 1.0}, "handle_left": {"Y": 1.0, "X": 0.5}, "interpolation": 0, "handle_right": {"Y": 0.0, "X": 0.5}, "handle_type": 0}]}, "blue": {"Points": [{"co": {"Y": 255.0, "X": 1.0}, "handle_left": {"Y": 1.0, "X": 0.5}, "interpolation": 0, "handle_right": {"Y": 0.0, "X": 0.5}, "handle_type": 0}]}}, "time": {"Points": [{"co": {"Y": 0.0, "X": 1.0}, "interpolation": 2}]}, "channel_filter": {"Points": [{"co": {"Y": -1.0, "X": 1.0}, "interpolation": 2}]}, "perspective_c1_y": {"Points": [{"co": {"Y": -1.0, "X": 1.0}, "interpolation": 2}]}, "layer": 1, "location_x": {"Points": [{"co": {"Y": 0.0, "X": 1.0}, "interpolation": 2}]}, "waveform": false, "location_y": {"Points": [{"co": {"Y": 0.0, "X": 1.0}, "interpolation": 2}]}, "perspective_c4_x": {"Points": [{"co": {"Y": -1.0, "X": 1.0}, "interpolation": 2}]}, "crop_x": {"Points": [{"co": {"Y": 0.0, "X": 1.0}, "interpolation": 2}]}, "scale_y": {"Points": [{"co": {"Y": 1.0, "X": 1.0}, "interpolation": 2}]}, "has_video": {"Points": [{"co": {"Y": -1.0, "X": 1.0}, "interpolation": 2}]}, "perspective_c2_x": {"Points": [{"co": {"Y": -1.0, "X": 1.0}, "interpolation": 2}]}, "perspective_c4_y": {"Points": [{"co": {"Y": -1.0, "X": 1.0}, "interpolation": 2}]}, "shear_y": {"Points": [{"co": {"Y": 0.0, "X": 1.0}, "interpolation": 2}]}, "effects": []}, {"crop_height": {"Points": [{"co": {"Y": -1.0, "X": 1.0}, "interpolation": 2}]}, "has_audio": {"Points": [{"co": {"Y": -1.0, "X": 1.0}, "interpolation": 2}]}, "id": "E65LO2RX6F", "perspective_c3_y": {"Points": [{"co": {"Y": -1.0, "X": 1.0}, "interpolation": 2}]}, "crop_width": {"Points": [{"co": {"Y": -1.0, "X": 1.0}, "interpolation": 2}]}, "perspective_c3_x": {"Points": [{"co": {"Y": -1.0, "X": 1.0}, "interpolation": 2}]}, "duration": 86400.0, "perspective_c2_y": {"Points": [{"co": {"Y": -1.0, "X": 1.0}, "interpolation": 2}]}, "handles": 0, "crop_y": {"Points": [{"co": {"Y": 0.0, "X": 1.0}, "interpolation": 2}]}, "perspective_c1_x": {"Points": [{"co": {"Y": -1.0, "X": 1.0}, "interpolation": 2}]}, "gravity": 4, "anchor": 0, "scale_x": {"Points": [{"co": {"Y": 1.0, "X": 1.0}, "interpolation": 2}]}, "image": "../../../../../../.openshot_qt/thumbnail/02SJPMJ1MW.png", "title": "slides-6.png", "file_id": "02SJPMJ1MW", "reader": {"width": 1654, "has_audio": false, "height": 1240, "fps": {"num": 30, "den": 1}, "duration": 86400.0, "channel_layout": 4, "audio_timebase": {"num": 1, "den": 1}, "audio_bit_rate": 0, "channels": 0, "file_size": "8203840", "video_stream_index": -1, "interlaced_frame": false, "path": "../slides/slides_images/slides-6.png", "pixel_ratio": {"num": 1, "den": 1}, "sample_rate": 0, "acodec": "", "audio_stream_index": -1, "video_length": "2592000", "top_field_first": true, "has_single_image": true, "pixel_format": -1, "vcodec": "", "type": "QtImageReader", "video_timebase": {"num": 1, "den": 30}, "has_video": true, "display_ratio": {"num": 827, "den": 620}, "video_bit_rate": 0}, "start": 0, "scale": 1, "position": 92.2, "channel_mapping": {"Points": [{"co": {"Y": -1.0, "X": 1.0}, "interpolation": 2}]}, "rotation": {"Points": [{"co": {"Y": 0.0, "X": 1.0}, "interpolation": 2}]}, "volume": {"Points": [{"co": {"Y": 1.0, "X": 1.0}, "interpolation": 2}]}, "alpha": {"Points": [{"co": {"Y": 1.0, "X": 1.0}, "interpolation": 2}]}, "shear_x": {"Points": [{"co": {"Y": 0.0, "X": 1.0}, "interpolation": 2}]}, "end": 10.8, "wave_color": {"alpha": {"Points": [{"co": {"Y": 255.0, "X": 1.0}, "handle_left": {"Y": 1.0, "X": 0.5}, "interpolation": 0, "handle_right": {"Y": 0.0, "X": 0.5}, "handle_type": 0}]}, "green": {"Points": [{"co": {"Y": 123.0, "X": 1.0}, "handle_left": {"Y": 1.0, "X": 0.5}, "interpolation": 0, "handle_right": {"Y": 0.0, "X": 0.5}, "handle_type": 0}]}, "red": {"Points": [{"co": {"Y": 0.0, "X": 1.0}, "handle_left": {"Y": 1.0, "X": 0.5}, "interpolation": 0, "handle_right": {"Y": 0.0, "X": 0.5}, "handle_type": 0}]}, "blue": {"Points": [{"co": {"Y": 255.0, "X": 1.0}, "handle_left": {"Y": 1.0, "X": 0.5}, "interpolation": 0, "handle_right": {"Y": 0.0, "X": 0.5}, "handle_type": 0}]}}, "time": {"Points": [{"co": {"Y": 0.0, "X": 1.0}, "interpolation": 2}]}, "channel_filter": {"Points": [{"co": {"Y": -1.0, "X": 1.0}, "interpolation": 2}]}, "perspective_c1_y": {"Points": [{"co": {"Y": -1.0, "X": 1.0}, "interpolation": 2}]}, "layer": 1, "location_x": {"Points": [{"co": {"Y": 0.0, "X": 1.0}, "interpolation": 2}]}, "waveform": false, "location_y": {"Points": [{"co": {"Y": 0.0, "X": 1.0}, "interpolation": 2}]}, "perspective_c4_x": {"Points": [{"co": {"Y": -1.0, "X": 1.0}, "interpolation": 2}]}, "crop_x": {"Points": [{"co": {"Y": 0.0, "X": 1.0}, "interpolation": 2}]}, "scale_y": {"Points": [{"co": {"Y": 1.0, "X": 1.0}, "interpolation": 2}]}, "has_video": {"Points": [{"co": {"Y": -1.0, "X": 1.0}, "interpolation": 2}]}, "perspective_c2_x": {"Points": [{"co": {"Y": -1.0, "X": 1.0}, "interpolation": 2}]}, "perspective_c4_y": {"Points": [{"co": {"Y": -1.0, "X": 1.0}, "interpolation": 2}]}, "shear_y": {"Points": [{"co": {"Y": 0.0, "X": 1.0}, "interpolation": 2}]}, "effects": []}, {"crop_height": {"Points": [{"co": {"Y": -1.0, "X": 1.0}, "interpolation": 2}]}, "has_audio": {"Points": [{"co": {"Y": -1.0, "X": 1.0}, "interpolation": 2}]}, "id": "JH1IG79M00", "perspective_c3_y": {"Points": [{"co": {"Y": -1.0, "X": 1.0}, "interpolation": 2}]}, "crop_width": {"Points": [{"co": {"Y": -1.0, "X": 1.0}, "interpolation": 2}]}, "perspective_c3_x": {"Points": [{"co": {"Y": -1.0, "X": 1.0}, "interpolation": 2}]}, "duration": 86400.0, "perspective_c2_y": {"Points": [{"co": {"Y": -1.0, "X": 1.0}, "interpolation": 2}]}, "handles": 0, "crop_y": {"Points": [{"co": {"Y": 0.0, "X": 1.0}, "interpolation": 2}]}, "perspective_c1_x": {"Points": [{"co": {"Y": -1.0, "X": 1.0}, "interpolation": 2}]}, "gravity": 4, "anchor": 0, "scale_x": {"Points": [{"co": {"Y": 1.0, "X": 1.0}, "interpolation": 2}]}, "image": "../../../../../../.openshot_qt/thumbnail/6E25KHHOKB.png", "title": "slides-7.png", "file_id": "6E25KHHOKB", "reader": {"width": 1654, "has_audio": false, "height": 1240, "fps": {"num": 30, "den": 1}, "duration": 86400.0, "channel_layout": 4, "audio_timebase": {"num": 1, "den": 1}, "audio_bit_rate": 0, "channels": 0, "file_size": "8203840", "video_stream_index": -1, "interlaced_frame": false, "path": "../slides/slides_images/slides-7.png", "pixel_ratio": {"num": 1, "den": 1}, "sample_rate": 0, "acodec": "", "audio_stream_index": -1, "video_length": "2592000", "top_field_first": true, "has_single_image": true, "pixel_format": -1, "vcodec": "", "type": "QtImageReader", "video_timebase": {"num": 1, "den": 30}, "has_video": true, "display_ratio": {"num": 827, "den": 620}, "video_bit_rate": 0}, "start": 0, "scale": 1, "position": 103, "channel_mapping": {"Points": [{"co": {"Y": -1.0, "X": 1.0}, "interpolation": 2}]}, "rotation": {"Points": [{"co": {"Y": 0.0, "X": 1.0}, "interpolation": 2}]}, "volume": {"Points": [{"co": {"Y": 1.0, "X": 1.0}, "interpolation": 2}]}, "alpha": {"Points": [{"co": {"Y": 1.0, "X": 1.0}, "interpolation": 2}]}, "shear_x": {"Points": [{"co": {"Y": 0.0, "X": 1.0}, "interpolation": 2}]}, "end": 13.399999999999999, "wave_color": {"alpha": {"Points": [{"co": {"Y": 255.0, "X": 1.0}, "handle_left": {"Y": 1.0, "X": 0.5}, "interpolation": 0, "handle_right": {"Y": 0.0, "X": 0.5}, "handle_type": 0}]}, "green": {"Points": [{"co": {"Y": 123.0, "X": 1.0}, "handle_left": {"Y": 1.0, "X": 0.5}, "interpolation": 0, "handle_right": {"Y": 0.0, "X": 0.5}, "handle_type": 0}]}, "red": {"Points": [{"co": {"Y": 0.0, "X": 1.0}, "handle_left": {"Y": 1.0, "X": 0.5}, "interpolation": 0, "handle_right": {"Y": 0.0, "X": 0.5}, "handle_type": 0}]}, "blue": {"Points": [{"co": {"Y": 255.0, "X": 1.0}, "handle_left": {"Y": 1.0, "X": 0.5}, "interpolation": 0, "handle_right": {"Y": 0.0, "X": 0.5}, "handle_type": 0}]}}, "time": {"Points": [{"co": {"Y": 0.0, "X": 1.0}, "interpolation": 2}]}, "channel_filter": {"Points": [{"co": {"Y": -1.0, "X": 1.0}, "interpolation": 2}]}, "perspective_c1_y": {"Points": [{"co": {"Y": -1.0, "X": 1.0}, "interpolation": 2}]}, "layer": 1, "location_x": {"Points": [{"co": {"Y": 0.0, "X": 1.0}, "interpolation": 2}]}, "waveform": false, "location_y": {"Points": [{"co": {"Y": 0.0, "X": 1.0}, "interpolation": 2}]}, "perspective_c4_x": {"Points": [{"co": {"Y": -1.0, "X": 1.0}, "interpolation": 2}]}, "crop_x": {"Points": [{"co": {"Y": 0.0, "X": 1.0}, "interpolation": 2}]}, "scale_y": {"Points": [{"co": {"Y": 1.0, "X": 1.0}, "interpolation": 2}]}, "has_video": {"Points": [{"co": {"Y": -1.0, "X": 1.0}, "interpolation": 2}]}, "perspective_c2_x": {"Points": [{"co": {"Y": -1.0, "X": 1.0}, "interpolation": 2}]}, "perspective_c4_y": {"Points": [{"co": {"Y": -1.0, "X": 1.0}, "interpolation": 2}]}, "shear_y": {"Points": [{"co": {"Y": 0.0, "X": 1.0}, "interpolation": 2}]}, "effects": []}, {"crop_height": {"Points": [{"co": {"Y": -1.0, "X": 1.0}, "interpolation": 2}]}, "has_audio": {"Points": [{"co": {"Y": -1.0, "X": 1.0}, "interpolation": 2}]}, "id": "5KOZHBJDEJ", "perspective_c3_y": {"Points": [{"co": {"Y": -1.0, "X": 1.0}, "interpolation": 2}]}, "crop_width": {"Points": [{"co": {"Y": -1.0, "X": 1.0}, "interpolation": 2}]}, "perspective_c3_x": {"Points": [{"co": {"Y": -1.0, "X": 1.0}, "interpolation": 2}]}, "duration": 86400.0, "perspective_c2_y": {"Points": [{"co": {"Y": -1.0, "X": 1.0}, "interpolation": 2}]}, "handles": 0, "crop_y": {"Points": [{"co": {"Y": 0.0, "X": 1.0}, "interpolation": 2}]}, "perspective_c1_x": {"Points": [{"co": {"Y": -1.0, "X": 1.0}, "interpolation": 2}]}, "gravity": 4, "anchor": 0, "scale_x": {"Points": [{"co": {"Y": 1.0, "X": 1.0}, "interpolation": 2}]}, "image": "../../../../../../.openshot_qt/thumbnail/2S3K0KPI0C.png", "title": "slides-8.png", "file_id": "2S3K0KPI0C", "reader": {"width": 1654, "has_audio": false, "height": 1240, "fps": {"num": 30, "den": 1}, "duration": 86400.0, "channel_layout": 4, "audio_timebase": {"num": 1, "den": 1}, "audio_bit_rate": 0, "channels": 0, "file_size": "8203840", "video_stream_index": -1, "interlaced_frame": false, "path": "../slides/slides_images/slides-8.png", "pixel_ratio": {"num": 1, "den": 1}, "sample_rate": 0, "acodec": "", "audio_stream_index": -1, "video_length": "2592000", "top_field_first": true, "has_single_image": true, "pixel_format": -1, "vcodec": "", "type": "QtImageReader", "video_timebase": {"num": 1, "den": 30}, "has_video": true, "display_ratio": {"num": 827, "den": 620}, "video_bit_rate": 0}, "start": 0, "scale": 1, "position": 116.4, "channel_mapping": {"Points": [{"co": {"Y": -1.0, "X": 1.0}, "interpolation": 2}]}, "rotation": {"Points": [{"co": {"Y": 0.0, "X": 1.0}, "interpolation": 2}]}, "volume": {"Points": [{"co": {"Y": 1.0, "X": 1.0}, "interpolation": 2}]}, "alpha": {"Points": [{"co": {"Y": 1.0, "X": 1.0}, "interpolation": 2}]}, "shear_x": {"Points": [{"co": {"Y": 0.0, "X": 1.0}, "interpolation": 2}]}, "end": 16, "wave_color": {"alpha": {"Points": [{"co": {"Y": 255.0, "X": 1.0}, "handle_left": {"Y": 1.0, "X": 0.5}, "interpolation": 0, "handle_right": {"Y": 0.0, "X": 0.5}, "handle_type": 0}]}, "green": {"Points": [{"co": {"Y": 123.0, "X": 1.0}, "handle_left": {"Y": 1.0, "X": 0.5}, "interpolation": 0, "handle_right": {"Y": 0.0, "X": 0.5}, "handle_type": 0}]}, "red": {"Points": [{"co": {"Y": 0.0, "X": 1.0}, "handle_left": {"Y": 1.0, "X": 0.5}, "interpolation": 0, "handle_right": {"Y": 0.0, "X": 0.5}, "handle_type": 0}]}, "blue": {"Points": [{"co": {"Y": 255.0, "X": 1.0}, "handle_left": {"Y": 1.0, "X": 0.5}, "interpolation": 0, "handle_right": {"Y": 0.0, "X": 0.5}, "handle_type": 0}]}}, "time": {"Points": [{"co": {"Y": 0.0, "X": 1.0}, "interpolation": 2}]}, "channel_filter": {"Points": [{"co": {"Y": -1.0, "X": 1.0}, "interpolation": 2}]}, "perspective_c1_y": {"Points": [{"co": {"Y": -1.0, "X": 1.0}, "interpolation": 2}]}, "layer": 1, "location_x": {"Points": [{"co": {"Y": 0.0, "X": 1.0}, "interpolation": 2}]}, "waveform": false, "location_y": {"Points": [{"co": {"Y": 0.0, "X": 1.0}, "interpolation": 2}]}, "perspective_c4_x": {"Points": [{"co": {"Y": -1.0, "X": 1.0}, "interpolation": 2}]}, "crop_x": {"Points": [{"co": {"Y": 0.0, "X": 1.0}, "interpolation": 2}]}, "scale_y": {"Points": [{"co": {"Y": 1.0, "X": 1.0}, "interpolation": 2}]}, "has_video": {"Points": [{"co": {"Y": -1.0, "X": 1.0}, "interpolation": 2}]}, "perspective_c2_x": {"Points": [{"co": {"Y": -1.0, "X": 1.0}, "interpolation": 2}]}, "perspective_c4_y": {"Points": [{"co": {"Y": -1.0, "X": 1.0}, "interpolation": 2}]}, "shear_y": {"Points": [{"co": {"Y": 0.0, "X": 1.0}, "interpolation": 2}]}, "effects": []}, {"crop_height": {"Points": [{"co": {"Y": -1.0, "X": 1.0}, "interpolation": 2}]}, "has_audio": {"Points": [{"co": {"Y": -1.0, "X": 1.0}, "interpolation": 2}]}, "id": "JR8ZTQQDUK", "perspective_c3_y": {"Points": [{"co": {"Y": -1.0, "X": 1.0}, "interpolation": 2}]}, "crop_width": {"Points": [{"co": {"Y": -1.0, "X": 1.0}, "interpolation": 2}]}, "perspective_c3_x": {"Points": [{"co": {"Y": -1.0, "X": 1.0}, "interpolation": 2}]}, "duration": 86400.0, "perspective_c2_y": {"Points": [{"co": {"Y": -1.0, "X": 1.0}, "interpolation": 2}]}, "handles": 0, "crop_y": {"Points": [{"co": {"Y": 0.0, "X": 1.0}, "interpolation": 2}]}, "perspective_c1_x": {"Points": [{"co": {"Y": -1.0, "X": 1.0}, "interpolation": 2}]}, "gravity": 4, "anchor": 0, "scale_x": {"Points": [{"co": {"Y": 1.0, "X": 1.0}, "interpolation": 2}]}, "image": "../../../../../../.openshot_qt/thumbnail/9QCTGU20HZ.png", "title": "slides-9.png", "file_id": "9QCTGU20HZ", "reader": {"width": 1654, "has_audio": false, "height": 1240, "fps": {"num": 30, "den": 1}, "duration": 86400.0, "channel_layout": 4, "audio_timebase": {"num": 1, "den": 1}, "audio_bit_rate": 0, "channels": 0, "file_size": "8203840", "video_stream_index": -1, "interlaced_frame": false, "path": "../slides/slides_images/slides-9.png", "pixel_ratio": {"num": 1, "den": 1}, "sample_rate": 0, "acodec": "", "audio_stream_index": -1, "video_length": "2592000", "top_field_first": true, "has_single_image": true, "pixel_format": -1, "vcodec": "", "type": "QtImageReader", "video_timebase": {"num": 1, "den": 30}, "has_video": true, "display_ratio": {"num": 827, "den": 620}, "video_bit_rate": 0}, "start": 0, "scale": 1, "position": 132.4, "channel_mapping": {"Points": [{"co": {"Y": -1.0, "X": 1.0}, "interpolation": 2}]}, "rotation": {"Points": [{"co": {"Y": 0.0, "X": 1.0}, "interpolation": 2}]}, "volume": {"Points": [{"co": {"Y": 1.0, "X": 1.0}, "interpolation": 2}]}, "alpha": {"Points": [{"co": {"Y": 1.0, "X": 1.0}, "interpolation": 2}]}, "shear_x": {"Points": [{"co": {"Y": 0.0, "X": 1.0}, "interpolation": 2}]}, "end": 10, "wave_color": {"alpha": {"Points": [{"co": {"Y": 255.0, "X": 1.0}, "handle_left": {"Y": 1.0, "X": 0.5}, "interpolation": 0, "handle_right": {"Y": 0.0, "X": 0.5}, "handle_type": 0}]}, "green": {"Points": [{"co": {"Y": 123.0, "X": 1.0}, "handle_left": {"Y": 1.0, "X": 0.5}, "interpolation": 0, "handle_right": {"Y": 0.0, "X": 0.5}, "handle_type": 0}]}, "red": {"Points": [{"co": {"Y": 0.0, "X": 1.0}, "handle_left": {"Y": 1.0, "X": 0.5}, "interpolation": 0, "handle_right": {"Y": 0.0, "X": 0.5}, "handle_type": 0}]}, "blue": {"Points": [{"co": {"Y": 255.0, "X": 1.0}, "handle_left": {"Y": 1.0, "X": 0.5}, "interpolation": 0, "handle_right": {"Y": 0.0, "X": 0.5}, "handle_type": 0}]}}, "time": {"Points": [{"co": {"Y": 0.0, "X": 1.0}, "interpolation": 2}]}, "channel_filter": {"Points": [{"co": {"Y": -1.0, "X": 1.0}, "interpolation": 2}]}, "perspective_c1_y": {"Points": [{"co": {"Y": -1.0, "X": 1.0}, "interpolation": 2}]}, "layer": 1, "location_x": {"Points": [{"co": {"Y": 0.0, "X": 1.0}, "interpolation": 2}]}, "waveform": false, "location_y": {"Points": [{"co": {"Y": 0.0, "X": 1.0}, "interpolation": 2}]}, "perspective_c4_x": {"Points": [{"co": {"Y": -1.0, "X": 1.0}, "interpolation": 2}]}, "crop_x": {"Points": [{"co": {"Y": 0.0, "X": 1.0}, "interpolation": 2}]}, "scale_y": {"Points": [{"co": {"Y": 1.0, "X": 1.0}, "interpolation": 2}]}, "has_video": {"Points": [{"co": {"Y": -1.0, "X": 1.0}, "interpolation": 2}]}, "perspective_c2_x": {"Points": [{"co": {"Y": -1.0, "X": 1.0}, "interpolation": 2}]}, "perspective_c4_y": {"Points": [{"co": {"Y": -1.0, "X": 1.0}, "interpolation": 2}]}, "shear_y": {"Points": [{"co": {"Y": 0.0, "X": 1.0}, "interpolation": 2}]}, "effects": []}, {"crop_height": {"Points": [{"co": {"Y": -1.0, "X": 1.0}, "interpolation": 2}]}, "has_audio": {"Points": [{"co": {"Y": -1.0, "X": 1.0}, "interpolation": 2}]}, "id": "OZRME4IE15", "perspective_c3_y": {"Points": [{"co": {"Y": -1.0, "X": 1.0}, "interpolation": 2}]}, "crop_width": {"Points": [{"co": {"Y": -1.0, "X": 1.0}, "interpolation": 2}]}, "perspective_c3_x": {"Points": [{"co": {"Y": -1.0, "X": 1.0}, "interpolation": 2}]}, "duration": 34.00598526000977, "perspective_c2_y": {"Points": [{"co": {"Y": -1.0, "X": 1.0}, "interpolation": 2}]}, "handles": 0, "crop_y": {"Points": [{"co": {"Y": 0.0, "X": 1.0}, "interpolation": 2}]}, "perspective_c1_x": {"Points": [{"co": {"Y": -1.0, "X": 1.0}, "interpolation": 2}]}, "gravity": 4, "anchor": 0, "scale_x": {"Points": [{"co": {"Y": 1.0, "X": 1.0}, "interpolation": 2}]}, "image": "../../../../../../.openshot_qt/thumbnail/ILERP6UIKD.png", "title": "p12VN.mp4", "file_id": "ILERP6UIKD", "reader": {"width": 1280, "has_audio": true, "height": 720, "fps": {"num": 24, "den": 1}, "duration": 34.00598526000977, "channel_layout": 3, "audio_timebase": {"num": 1, "den": 44100}, "audio_bit_rate": 192128, "channels": 2, "file_size": "39858865", "video_stream_index": 0, "interlaced_frame": false, "path": "../videos_hri/p12VN.mp4", "pixel_ratio": {"num": 1, "den": 1}, "sample_rate": 44100, "acodec": "ac3", "audio_stream_index": 1, "video_length": "816", "top_field_first": true, "has_single_image": false, "pixel_format": 0, "vcodec": "h264", "type": "FFmpegReader", "video_timebase": {"num": 1, "den": 24}, "has_video": true, "display_ratio": {"num": 16, "den": 9}, "video_bit_rate": 9353519}, "start": 0, "scale": 1, "position": 142.4, "channel_mapping": {"Points": [{"co": {"Y": -1.0, "X": 1.0}, "interpolation": 2}]}, "rotation": {"Points": [{"co": {"Y": 0.0, "X": 1.0}, "interpolation": 2}]}, "volume": {"Points": [{"co": {"Y": 1.0, "X": 1.0}, "interpolation": 2}]}, "alpha": {"Points": [{"co": {"Y": 1.0, "X": 1.0}, "interpolation": 2}]}, "shear_x": {"Points": [{"co": {"Y": 0.0, "X": 1.0}, "interpolation": 2}]}, "end": 13.005985260009773, "wave_color": {"alpha": {"Points": [{"co": {"Y": 255.0, "X": 1.0}, "handle_left": {"Y": 1.0, "X": 0.5}, "interpolation": 0, "handle_right": {"Y": 0.0, "X": 0.5}, "handle_type": 0}]}, "green": {"Points": [{"co": {"Y": 123.0, "X": 1.0}, "handle_left": {"Y": 1.0, "X": 0.5}, "interpolation": 0, "handle_right": {"Y": 0.0, "X": 0.5}, "handle_type": 0}]}, "red": {"Points": [{"co": {"Y": 0.0, "X": 1.0}, "handle_left": {"Y": 1.0, "X": 0.5}, "interpolation": 0, "handle_right": {"Y": 0.0, "X": 0.5}, "handle_type": 0}]}, "blue": {"Points": [{"co": {"Y": 255.0, "X": 1.0}, "handle_left": {"Y": 1.0, "X": 0.5}, "interpolation": 0, "handle_right": {"Y": 0.0, "X": 0.5}, "handle_type": 0}]}}, "time": {"Points": [{"co": {"Y": 0.0, "X": 1.0}, "interpolation": 2}]}, "channel_filter": {"Points": [{"co": {"Y": -1.0, "X": 1.0}, "interpolation": 2}]}, "perspective_c1_y": {"Points": [{"co": {"Y": -1.0, "X": 1.0}, "interpolation": 2}]}, "layer": 1, "location_x": {"Points": [{"co": {"Y": 0.0, "X": 1.0}, "interpolation": 2}]}, "waveform": false, "location_y": {"Points": [{"co": {"Y": 0.0, "X": 1.0}, "interpolation": 2}]}, "perspective_c4_x": {"Points": [{"co": {"Y": -1.0, "X": 1.0}, "interpolation": 2}]}, "crop_x": {"Points": [{"co": {"Y": 0.0, "X": 1.0}, "interpolation": 2}]}, "scale_y": {"Points": [{"co": {"Y": 1.0, "X": 1.0}, "interpolation": 2}]}, "has_video": {"Points": [{"co": {"Y": -1.0, "X": 1.0}, "interpolation": 2}]}, "perspective_c2_x": {"Points": [{"co": {"Y": -1.0, "X": 1.0}, "interpolation": 2}]}, "perspective_c4_y": {"Points": [{"co": {"Y": -1.0, "X": 1.0}, "interpolation": 2}]}, "shear_y": {"Points": [{"co": {"Y": 0.0, "X": 1.0}, "interpolation": 2}]}, "effects": []}, {"crop_height": {"Points": [{"co": {"Y": -1.0, "X": 1.0}, "interpolation": 2}]}, "has_audio": {"Points": [{"co": {"Y": -1.0, "X": 1.0}, "interpolation": 2}]}, "id": "P4IGCPBH0K", "perspective_c3_y": {"Points": [{"co": {"Y": -1.0, "X": 1.0}, "interpolation": 2}]}, "crop_width": {"Points": [{"co": {"Y": -1.0, "X": 1.0}, "interpolation": 2}]}, "perspective_c3_x": {"Points": [{"co": {"Y": -1.0, "X": 1.0}, "interpolation": 2}]}, "duration": 86400.0, "perspective_c2_y": {"Points": [{"co": {"Y": -1.0, "X": 1.0}, "interpolation": 2}]}, "handles": 0, "crop_y": {"Points": [{"co": {"Y": 0.0, "X": 1.0}, "interpolation": 2}]}, "perspective_c1_x": {"Points": [{"co": {"Y": -1.0, "X": 1.0}, "interpolation": 2}]}, "gravity": 4, "anchor": 0, "scale_x": {"Points": [{"co": {"Y": 1.0, "X": 1.0}, "interpolation": 2}]}, "image": "../../../../../../.openshot_qt/thumbnail/RV0S0LIZGA.png", "title": "slides-10.png", "file_id": "RV0S0LIZGA", "reader": {"width": 1654, "has_audio": false, "height": 1240, "fps": {"num": 30, "den": 1}, "duration": 86400.0, "channel_layout": 4, "audio_timebase": {"num": 1, "den": 1}, "audio_bit_rate": 0, "channels": 0, "file_size": "8203840", "video_stream_index": -1, "interlaced_frame": false, "path": "../slides/slides_images/slides-10.png", "pixel_ratio": {"num": 1, "den": 1}, "sample_rate": 0, "acodec": "", "audio_stream_index": -1, "video_length": "2592000", "top_field_first": true, "has_single_image": true, "pixel_format": -1, "vcodec": "", "type": "QtImageReader", "video_timebase": {"num": 1, "den": 30}, "has_video": true, "display_ratio": {"num": 827, "den": 620}, "video_bit_rate": 0}, "start": 0, "scale": 1, "position": 155.4, "channel_mapping": {"Points": [{"co": {"Y": -1.0, "X": 1.0}, "interpolation": 2}]}, "rotation": {"Points": [{"co": {"Y": 0.0, "X": 1.0}, "interpolation": 2}]}, "volume": {"Points": [{"co": {"Y": 1.0, "X": 1.0}, "interpolation": 2}]}, "alpha": {"Points": [{"co": {"Y": 1.0, "X": 1.0}, "interpolation": 2}]}, "shear_x": {"Points": [{"co": {"Y": 0.0, "X": 1.0}, "interpolation": 2}]}, "end": 15.200000000000001, "wave_color": {"alpha": {"Points": [{"co": {"Y": 255.0, "X": 1.0}, "handle_left": {"Y": 1.0, "X": 0.5}, "interpolation": 0, "handle_right": {"Y": 0.0, "X": 0.5}, "handle_type": 0}]}, "green": {"Points": [{"co": {"Y": 123.0, "X": 1.0}, "handle_left": {"Y": 1.0, "X": 0.5}, "interpolation": 0, "handle_right": {"Y": 0.0, "X": 0.5}, "handle_type": 0}]}, "red": {"Points": [{"co": {"Y": 0.0, "X": 1.0}, "handle_left": {"Y": 1.0, "X": 0.5}, "interpolation": 0, "handle_right": {"Y": 0.0, "X": 0.5}, "handle_type": 0}]}, "blue": {"Points": [{"co": {"Y": 255.0, "X": 1.0}, "handle_left": {"Y": 1.0, "X": 0.5}, "interpolation": 0, "handle_right": {"Y": 0.0, "X": 0.5}, "handle_type": 0}]}}, "time": {"Points": [{"co": {"Y": 0.0, "X": 1.0}, "interpolation": 2}]}, "channel_filter": {"Points": [{"co": {"Y": -1.0, "X": 1.0}, "interpolation": 2}]}, "perspective_c1_y": {"Points": [{"co": {"Y": -1.0, "X": 1.0}, "interpolation": 2}]}, "layer": 1, "location_x": {"Points": [{"co": {"Y": 0.0, "X": 1.0}, "interpolation": 2}]}, "waveform": false, "location_y": {"Points": [{"co": {"Y": 0.0, "X": 1.0}, "interpolation": 2}]}, "perspective_c4_x": {"Points": [{"co": {"Y": -1.0, "X": 1.0}, "interpolation": 2}]}, "crop_x": {"Points": [{"co": {"Y": 0.0, "X": 1.0}, "interpolation": 2}]}, "scale_y": {"Points": [{"co": {"Y": 1.0, "X": 1.0}, "interpolation": 2}]}, "has_video": {"Points": [{"co": {"Y": -1.0, "X": 1.0}, "interpolation": 2}]}, "perspective_c2_x": {"Points": [{"co": {"Y": -1.0, "X": 1.0}, "interpolation": 2}]}, "perspective_c4_y": {"Points": [{"co": {"Y": -1.0, "X": 1.0}, "interpolation": 2}]}, "shear_y": {"Points": [{"co": {"Y": 0.0, "X": 1.0}, "interpolation": 2}]}, "effects": []}, {"crop_height": {"Points": [{"co": {"Y": -1.0, "X": 1.0}, "interpolation": 2}]}, "has_audio": {"Points": [{"co": {"Y": -1.0, "X": 1.0}, "interpolation": 2}]}, "id": "MR2YOBNYR0", "perspective_c3_y": {"Points": [{"co": {"Y": -1.0, "X": 1.0}, "interpolation": 2}]}, "crop_width": {"Points": [{"co": {"Y": -1.0, "X": 1.0}, "interpolation": 2}]}, "perspective_c3_x": {"Points": [{"co": {"Y": -1.0, "X": 1.0}, "interpolation": 2}]}, "duration": 86400.0, "perspective_c2_y": {"Points": [{"co": {"Y": -1.0, "X": 1.0}, "interpolation": 2}]}, "handles": 0, "crop_y": {"Points": [{"co": {"Y": 0.0, "X": 1.0}, "interpolation": 2}]}, "perspective_c1_x": {"Points": [{"co": {"Y": -1.0, "X": 1.0}, "interpolation": 2}]}, "gravity": 4, "anchor": 0, "scale_x": {"Points": [{"co": {"Y": 1.0, "X": 1.0}, "interpolation": 2}]}, "image": "../../../../../../.openshot_qt/thumbnail/QVCA54R8F4.png", "title": "slides-11.png", "file_id": "QVCA54R8F4", "reader": {"width": 1654, "has_audio": false, "height": 1240, "fps": {"num": 30, "den": 1}, "duration": 86400.0, "channel_layout": 4, "audio_timebase": {"num": 1, "den": 1}, "audio_bit_rate": 0, "channels": 0, "file_size": "8203840", "video_stream_index": -1, "interlaced_frame": false, "path": "../slides/slides_images/slides-11.png", "pixel_ratio": {"num": 1, "den": 1}, "sample_rate": 0, "acodec": "", "audio_stream_index": -1, "video_length": "2592000", "top_field_first": true, "has_single_image": true, "pixel_format": -1, "vcodec": "", "type": "QtImageReader", "video_timebase": {"num": 1, "den": 30}, "has_video": true, "display_ratio": {"num": 827, "den": 620}, "video_bit_rate": 0}, "start": 1.4, "scale": 1, "position": 170.94166666666666, "channel_mapping": {"Points": [{"co": {"Y": -1.0, "X": 1.0}, "interpolation": 2}]}, "rotation": {"Points": [{"co": {"Y": 0.0, "X": 1.0}, "interpolation": 2}]}, "volume": {"Points": [{"co": {"Y": 1.0, "X": 1.0}, "interpolation": 2}]}, "alpha": {"Points": [{"co": {"Y": 1.0, "X": 1.0}, "interpolation": 2}]}, "shear_x": {"Points": [{"co": {"Y": 0.0, "X": 1.0}, "interpolation": 2}]}, "end": 26.8, "wave_color": {"alpha": {"Points": [{"co": {"Y": 255.0, "X": 1.0}, "handle_left": {"Y": 1.0, "X": 0.5}, "interpolation": 0, "handle_right": {"Y": 0.0, "X": 0.5}, "handle_type": 0}]}, "green": {"Points": [{"co": {"Y": 123.0, "X": 1.0}, "handle_left": {"Y": 1.0, "X": 0.5}, "interpolation": 0, "handle_right": {"Y": 0.0, "X": 0.5}, "handle_type": 0}]}, "red": {"Points": [{"co": {"Y": 0.0, "X": 1.0}, "handle_left": {"Y": 1.0, "X": 0.5}, "interpolation": 0, "handle_right": {"Y": 0.0, "X": 0.5}, "handle_type": 0}]}, "blue": {"Points": [{"co": {"Y": 255.0, "X": 1.0}, "handle_left": {"Y": 1.0, "X": 0.5}, "interpolation": 0, "handle_right": {"Y": 0.0, "X": 0.5}, "handle_type": 0}]}}, "time": {"Points": [{"co": {"Y": 0.0, "X": 1.0}, "interpolation": 2}]}, "channel_filter": {"Points": [{"co": {"Y": -1.0, "X": 1.0}, "interpolation": 2}]}, "perspective_c1_y": {"Points": [{"co": {"Y": -1.0, "X": 1.0}, "interpolation": 2}]}, "layer": 1, "location_x": {"Points": [{"co": {"Y": 0.0, "X": 1.0}, "interpolation": 2}]}, "waveform": false, "location_y": {"Points": [{"co": {"Y": 0.0, "X": 1.0}, "interpolation": 2}]}, "perspective_c4_x": {"Points": [{"co": {"Y": -1.0, "X": 1.0}, "interpolation": 2}]}, "crop_x": {"Points": [{"co": {"Y": 0.0, "X": 1.0}, "interpolation": 2}]}, "scale_y": {"Points": [{"co": {"Y": 1.0, "X": 1.0}, "interpolation": 2}]}, "has_video": {"Points": [{"co": {"Y": -1.0, "X": 1.0}, "interpolation": 2}]}, "perspective_c2_x": {"Points": [{"co": {"Y": -1.0, "X": 1.0}, "interpolation": 2}]}, "perspective_c4_y": {"Points": [{"co": {"Y": -1.0, "X": 1.0}, "interpolation": 2}]}, "shear_y": {"Points": [{"co": {"Y": 0.0, "X": 1.0}, "interpolation": 2}]}, "effects": []}, {"crop_height": {"Points": [{"co": {"Y": -1.0, "X": 1.0}, "interpolation": 2}]}, "has_audio": {"Points": [{"co": {"Y": -1.0, "X": 1.0}, "interpolation": 2}]}, "id": "OY5X7LX6WN", "perspective_c3_y": {"Points": [{"co": {"Y": -1.0, "X": 1.0}, "interpolation": 2}]}, "crop_width": {"Points": [{"co": {"Y": -1.0, "X": 1.0}, "interpolation": 2}]}, "perspective_c3_x": {"Points": [{"co": {"Y": -1.0, "X": 1.0}, "interpolation": 2}]}, "duration": 86400.0, "perspective_c2_y": {"Points": [{"co": {"Y": -1.0, "X": 1.0}, "interpolation": 2}]}, "handles": 0, "crop_y": {"Points": [{"co": {"Y": 0.0, "X": 1.0}, "interpolation": 2}]}, "perspective_c1_x": {"Points": [{"co": {"Y": -1.0, "X": 1.0}, "interpolation": 2}]}, "gravity": 4, "anchor": 0, "scale_x": {"Points": [{"co": {"Y": 1.0, "X": 1.0}, "interpolation": 2}]}, "image": "../../../../../../.openshot_qt/thumbnail/IVVZ4GF8KU.png", "title": "slides-12.png", "file_id": "IVVZ4GF8KU", "reader": {"width": 1654, "has_audio": false, "height": 1240, "fps": {"num": 30, "den": 1}, "duration": 86400.0, "channel_layout": 4, "audio_timebase": {"num": 1, "den": 1}, "audio_bit_rate": 0, "channels": 0, "file_size": "8203840", "video_stream_index": -1, "interlaced_frame": false, "path": "../slides/slides_images/slides-12.png", "pixel_ratio": {"num": 1, "den": 1}, "sample_rate": 0, "acodec": "", "audio_stream_index": -1, "video_length": "2592000", "top_field_first": true, "has_single_image": true, "pixel_format": -1, "vcodec": "", "type": "QtImageReader", "video_timebase": {"num": 1, "den": 30}, "has_video": true, "display_ratio": {"num": 827, "den": 620}, "video_bit_rate": 0}, "start": 0.8, "scale": 1, "position": 196.34166666666667, "channel_mapping": {"Points": [{"co": {"Y": -1.0, "X": 1.0}, "interpolation": 2}]}, "rotation": {"Points": [{"co": {"Y": 0.0, "X": 1.0}, "interpolation": 2}]}, "volume": {"Points": [{"co": {"Y": 1.0, "X": 1.0}, "interpolation": 2}]}, "alpha": {"Points": [{"co": {"Y": 1.0, "X": 1.0}, "interpolation": 2}]}, "shear_x": {"Points": [{"co": {"Y": 0.0, "X": 1.0}, "interpolation": 2}]}, "end": 14.6, "wave_color": {"alpha": {"Points": [{"co": {"Y": 255.0, "X": 1.0}, "handle_left": {"Y": 1.0, "X": 0.5}, "interpolation": 0, "handle_right": {"Y": 0.0, "X": 0.5}, "handle_type": 0}]}, "green": {"Points": [{"co": {"Y": 123.0, "X": 1.0}, "handle_left": {"Y": 1.0, "X": 0.5}, "interpolation": 0, "handle_right": {"Y": 0.0, "X": 0.5}, "handle_type": 0}]}, "red": {"Points": [{"co": {"Y": 0.0, "X": 1.0}, "handle_left": {"Y": 1.0, "X": 0.5}, "interpolation": 0, "handle_right": {"Y": 0.0, "X": 0.5}, "handle_type": 0}]}, "blue": {"Points": [{"co": {"Y": 255.0, "X": 1.0}, "handle_left": {"Y": 1.0, "X": 0.5}, "interpolation": 0, "handle_right": {"Y": 0.0, "X": 0.5}, "handle_type": 0}]}}, "time": {"Points": [{"co": {"Y": 0.0, "X": 1.0}, "interpolation": 2}]}, "channel_filter": {"Points": [{"co": {"Y": -1.0, "X": 1.0}, "interpolation": 2}]}, "perspective_c1_y": {"Points": [{"co": {"Y": -1.0, "X": 1.0}, "interpolation": 2}]}, "layer": 1, "location_x": {"Points": [{"co": {"Y": 0.0, "X": 1.0}, "interpolation": 2}]}, "waveform": false, "location_y": {"Points": [{"co": {"Y": 0.0, "X": 1.0}, "interpolation": 2}]}, "perspective_c4_x": {"Points": [{"co": {"Y": -1.0, "X": 1.0}, "interpolation": 2}]}, "crop_x": {"Points": [{"co": {"Y": 0.0, "X": 1.0}, "interpolation": 2}]}, "scale_y": {"Points": [{"co": {"Y": 1.0, "X": 1.0}, "interpolation": 2}]}, "has_video": {"Points": [{"co": {"Y": -1.0, "X": 1.0}, "interpolation": 2}]}, "perspective_c2_x": {"Points": [{"co": {"Y": -1.0, "X": 1.0}, "interpolation": 2}]}, "perspective_c4_y": {"Points": [{"co": {"Y": -1.0, "X": 1.0}, "interpolation": 2}]}, "shear_y": {"Points": [{"co": {"Y": 0.0, "X": 1.0}, "interpolation": 2}]}, "effects": []}, {"has_audio": {"Points": [{"co": {"Y": -1.0, "X": 1.0}, "interpolation": 2}]}, "id": "HYVALDJ82P", "perspective_c3_y": {"Points": [{"co": {"Y": -1.0, "X": 1.0}, "interpolation": 2}]}, "duration": 86400.0, "effects": [], "perspective_c1_x": {"Points": [{"co": {"Y": -1.0, "X": 1.0}, "interpolation": 2}]}, "anchor": 0, "scale": 1, "reader": {"width": 1654, "has_audio": false, "height": 1240, "fps": {"num": 30, "den": 1}, "duration": 86400.0, "channel_layout": 4, "audio_timebase": {"num": 1, "den": 1}, "audio_bit_rate": 0, "channels": 0, "file_size": "8203840", "video_stream_index": -1, "interlaced_frame": false, "path": "../slides/slides_images/slides-0.png", "pixel_ratio": {"num": 1, "den": 1}, "sample_rate": 0, "acodec": "", "audio_stream_index": -1, "video_length": "2592000", "top_field_first": true, "has_single_image": true, "pixel_format": -1, "vcodec": "", "type": "QtImageReader", "video_timebase": {"num": 1, "den": 30}, "has_video": true, "display_ratio": {"num": 827, "den": 620}, "video_bit_rate": 0}, "start": 0, "title": "slides-0.png", "rotation": {"Points": [{"co": {"Y": 0.0, "X": 1.0}, "interpolation": 2}]}, "volume": {"Points": [{"co": {"Y": 1.0, "X": 1.0}, "interpolation": 2}]}, "alpha": {"Points": [{"co": {"Y": 1.0, "X": 1.0}, "interpolation": 2}]}, "crop_y": {"Points": [{"co": {"Y": 0.0, "X": 1.0}, "interpolation": 2}]}, "channel_mapping": {"Points": [{"co": {"Y": -1.0, "X": 1.0}, "interpolation": 2}]}, "wave_color": {"alpha": {"Points": [{"co": {"Y": 255.0, "X": 1.0}, "handle_left": {"Y": 1.0, "X": 0.5}, "interpolation": 0, "handle_right": {"Y": 0.0, "X": 0.5}, "handle_type": 0}]}, "green": {"Points": [{"co": {"Y": 123.0, "X": 1.0}, "handle_left": {"Y": 1.0, "X": 0.5}, "interpolation": 0, "handle_right": {"Y": 0.0, "X": 0.5}, "handle_type": 0}]}, "red": {"Points": [{"co": {"Y": 0.0, "X": 1.0}, "handle_left": {"Y": 1.0, "X": 0.5}, "interpolation": 0, "handle_right": {"Y": 0.0, "X": 0.5}, "handle_type": 0}]}, "blue": {"Points": [{"co": {"Y": 255.0, "X": 1.0}, "handle_left": {"Y": 1.0, "X": 0.5}, "interpolation": 0, "handle_right": {"Y": 0.0, "X": 0.5}, "handle_type": 0}]}}, "location_x": {"Points": [{"co": {"Y": 0.0, "X": 1.0}, "interpolation": 2}]}, "crop_x": {"Points": [{"co": {"Y": 0.0, "X": 1.0}, "interpolation": 2}]}, "location_y": {"Points": [{"co": {"Y": 0.0, "X": 1.0}, "interpolation": 2}]}, "perspective_c4_x": {"Points": [{"co": {"Y": -1.0, "X": 1.0}, "interpolation": 2}]}, "scale_y": {"Points": [{"co": {"Y": 1.0, "X": 1.0}, "interpolation": 2}]}, "channel_filter": {"Points": [{"co": {"Y": -1.0, "X": 1.0}, "interpolation": 2}]}, "perspective_c2_x": {"Points": [{"co": {"Y": -1.0, "X": 1.0}, "interpolation": 2}]}, "perspective_c4_y": {"Points": [{"co": {"Y": -1.0, "X": 1.0}, "interpolation": 2}]}, "shear_y": {"Points": [{"co": {"Y": 0.0, "X": 1.0}, "interpolation": 2}]}, "crop_height": {"Points": [{"co": {"Y": -1.0, "X": 1.0}, "interpolation": 2}]}, "perspective_c3_x": {"Points": [{"co": {"Y": -1.0, "X": 1.0}, "interpolation": 2}]}, "perspective_c2_y": {"Points": [{"co": {"Y": -1.0, "X": 1.0}, "interpolation": 2}]}, "handles": 0, "gravity": 4, "image": "../../../../../../.openshot_qt/thumbnail/JOGQVEQ82F.png", "position": 209.95833333333334, "scale_x": {"Points": [{"co": {"Y": 1.0, "X": 1.0}, "interpolation": 2}]}, "file_id": "JOGQVEQ82F", "end": 2, "time": {"Points": [{"co": {"Y": 0.0, "X": 1.0}, "interpolation": 2}]}, "crop_width": {"Points": [{"co": {"Y": -1.0, "X": 1.0}, "interpolation": 2}]}, "perspective_c1_y": {"Points": [{"co": {"Y": -1.0, "X": 1.0}, "interpolation": 2}]}, "layer": 1, "waveform": false, "has_video": {"Points": [{"co": {"Y": -1.0, "X": 1.0}, "interpolation": 2}]}, "shear_x": {"Points": [{"co": {"Y": 0.0, "X": 1.0}, "interpolation": 2}]}}], "markers": [], "fps": {"num": 24, "den": 1}, "duration": 300, "channel_layout": 3, "effects": [], "height": 720, "settings": {}, "profile": "HDV 720 24p", "progress": [], "scale": 16, "channels": 2, "layers": [{"y": 0, "id": "L0", "lock": false, "number": 0, "label": ""}, {"y": 0, "id": "L1", "lock": false, "number": 1, "label": ""}, {"y": 0, "id": "L2", "lock": false, "number": 2, "label": ""}, {"y": 0, "id": "L3", "lock": false, "number": 3, "label": ""}, {"y": 0, "id": "L4", "lock": false, "number": 4, "label": ""}], "files": [{"width": 1654, "has_audio": false, "height": 1240, "fps": {"num": 30, "den": 1}, "duration": 86400.0, "channel_layout": 4, "audio_timebase": {"num": 1, "den": 1}, "id": "JOGQVEQ82F", "video_length": "2592000", "channels": 0, "file_size": "8203840", "video_stream_index": -1, "interlaced_frame": false, "pixel_ratio": {"num": 1, "den": 1}, "sample_rate": 0, "acodec": "", "type": "QtImageReader", "audio_stream_index": -1, "audio_bit_rate": 0, "top_field_first": true, "has_single_image": true, "pixel_format": -1, "vcodec": "", "path": "../slides/slides_images/slides-0.png", "video_timebase": {"num": 1, "den": 30}, "media_type": "image", "has_video": true, "display_ratio": {"num": 827, "den": 620}, "video_bit_rate": 0}, {"width": 1654, "has_audio": false, "height": 1240, "fps": {"num": 30, "den": 1}, "duration": 86400.0, "channel_layout": 4, "audio_timebase": {"num": 1, "den": 1}, "id": "DVT8ZR1JRO", "video_length": "2592000", "channels": 0, "file_size": "8203840", "video_stream_index": -1, "interlaced_frame": false, "pixel_ratio": {"num": 1, "den": 1}, "sample_rate": 0, "acodec": "", "type": "QtImageReader", "audio_stream_index": -1, "audio_bit_rate": 0, "top_field_first": true, "has_single_image": true, "pixel_format": -1, "vcodec": "", "path": "../slides/slides_images/slides-1.png", "video_timebase": {"num": 1, "den": 30}, "media_type": "image", "has_video": true, "display_ratio": {"num": 827, "den": 620}, "video_bit_rate": 0}, {"width": 1654, "has_audio": false, "height": 1240, "fps": {"num": 30, "den": 1}, "duration": 86400.0, "channel_layout": 4, "audio_timebase": {"num": 1, "den": 1}, "id": "ZF5IVIUVH6", "video_length": "2592000", "channels": 0, "file_size": "8203840", "video_stream_index": -1, "interlaced_frame": false, "pixel_ratio": {"num": 1, "den": 1}, "sample_rate": 0, "acodec": "", "type": "QtImageReader", "audio_stream_index": -1, "audio_bit_rate": 0, "top_field_first": true, "has_single_image": true, "pixel_format": -1, "vcodec": "", "path": "../slides/slides_images/slides-2.png", "video_timebase": {"num": 1, "den": 30}, "media_type": "image", "has_video": true, "display_ratio": {"num": 827, "den": 620}, "video_bit_rate": 0}, {"width": 1654, "has_audio": false, "height": 1240, "fps": {"num": 30, "den": 1}, "duration": 86400.0, "channel_layout": 4, "audio_timebase": {"num": 1, "den": 1}, "id": "I5A0CPS4SN", "video_length": "2592000", "channels": 0, "file_size": "8203840", "video_stream_index": -1, "interlaced_frame": false, "pixel_ratio": {"num": 1, "den": 1}, "sample_rate": 0, "acodec": "", "type": "QtImageReader", "audio_stream_index": -1, "audio_bit_rate": 0, "top_field_first": true, "has_single_image": true, "pixel_format": -1, "vcodec": "", "path": "../slides/slides_images/slides-3.png", "video_timebase": {"num": 1, "den": 30}, "media_type": "image", "has_video": true, "display_ratio": {"num": 827, "den": 620}, "video_bit_rate": 0}, {"width": 1654, "has_audio": false, "height": 1240, "fps": {"num": 30, "den": 1}, "duration": 86400.0, "channel_layout": 4, "audio_timebase": {"num": 1, "den": 1}, "id": "4K86MZCWD0", "video_length": "2592000", "channels": 0, "file_size": "8203840", "video_stream_index": -1, "interlaced_frame": false, "pixel_ratio": {"num": 1, "den": 1}, "sample_rate": 0, "acodec": "", "type": "QtImageReader", "audio_stream_index": -1, "audio_bit_rate": 0, "top_field_first": true, "has_single_image": true, "pixel_format": -1, "vcodec": "", "path": "../slides/slides_images/slides-4.png", "video_timebase": {"num": 1, "den": 30}, "media_type": "image", "has_video": true, "display_ratio": {"num": 827, "den": 620}, "video_bit_rate": 0}, {"width": 1654, "has_audio": false, "height": 1240, "fps": {"num": 30, "den": 1}, "duration": 86400.0, "channel_layout": 4, "audio_timebase": {"num": 1, "den": 1}, "id": "XG4YAROIKD", "video_length": "2592000", "channels": 0, "file_size": "8203840", "video_stream_index": -1, "interlaced_frame": false, "pixel_ratio": {"num": 1, "den": 1}, "sample_rate": 0, "acodec": "", "type": "QtImageReader", "audio_stream_index": -1, "audio_bit_rate": 0, "top_field_first": true, "has_single_image": true, "pixel_format": -1, "vcodec": "", "path": "../slides/slides_images/slides-5.png", "video_timebase": {"num": 1, "den": 30}, "media_type": "image", "has_video": true, "display_ratio": {"num": 827, "den": 620}, "video_bit_rate": 0}, {"width": 1654, "has_audio": false, "height": 1240, "fps": {"num": 30, "den": 1}, "duration": 86400.0, "channel_layout": 4, "audio_timebase": {"num": 1, "den": 1}, "id": "02SJPMJ1MW", "video_length": "2592000", "channels": 0, "file_size": "8203840", "video_stream_index": -1, "interlaced_frame": false, "pixel_ratio": {"num": 1, "den": 1}, "sample_rate": 0, "acodec": "", "type": "QtImageReader", "audio_stream_index": -1, "audio_bit_rate": 0, "top_field_first": true, "has_single_image": true, "pixel_format": -1, "vcodec": "", "path": "../slides/slides_images/slides-6.png", "video_timebase": {"num": 1, "den": 30}, "media_type": "image", "has_video": true, "display_ratio": {"num": 827, "den": 620}, "video_bit_rate": 0}, {"width": 1654, "has_audio": false, "height": 1240, "fps": {"num": 30, "den": 1}, "duration": 86400.0, "channel_layout": 4, "audio_timebase": {"num": 1, "den": 1}, "id": "6E25KHHOKB", "video_length": "2592000", "channels": 0, "file_size": "8203840", "video_stream_index": -1, "interlaced_frame": false, "pixel_ratio": {"num": 1, "den": 1}, "sample_rate": 0, "acodec": "", "type": "QtImageReader", "audio_stream_index": -1, "audio_bit_rate": 0, "top_field_first": true, "has_single_image": true, "pixel_format": -1, "vcodec": "", "path": "../slides/slides_images/slides-7.png", "video_timebase": {"num": 1, "den": 30}, "media_type": "image", "has_video": true, "display_ratio": {"num": 827, "den": 620}, "video_bit_rate": 0}, {"width": 1654, "has_audio": false, "height": 1240, "fps": {"num": 30, "den": 1}, "duration": 86400.0, "channel_layout": 4, "audio_timebase": {"num": 1, "den": 1}, "id": "2S3K0KPI0C", "video_length": "2592000", "channels": 0, "file_size": "8203840", "video_stream_index": -1, "interlaced_frame": false, "pixel_ratio": {"num": 1, "den": 1}, "sample_rate": 0, "acodec": "", "type": "QtImageReader", "audio_stream_index": -1, "audio_bit_rate": 0, "top_field_first": true, "has_single_image": true, "pixel_format": -1, "vcodec": "", "path": "../slides/slides_images/slides-8.png", "video_timebase": {"num": 1, "den": 30}, "media_type": "image", "has_video": true, "display_ratio": {"num": 827, "den": 620}, "video_bit_rate": 0}, {"width": 1654, "has_audio": false, "height": 1240, "fps": {"num": 30, "den": 1}, "duration": 86400.0, "channel_layout": 4, "audio_timebase": {"num": 1, "den": 1}, "id": "9QCTGU20HZ", "video_length": "2592000", "channels": 0, "file_size": "8203840", "video_stream_index": -1, "interlaced_frame": false, "pixel_ratio": {"num": 1, "den": 1}, "sample_rate": 0, "acodec": "", "type": "QtImageReader", "audio_stream_index": -1, "audio_bit_rate": 0, "top_field_first": true, "has_single_image": true, "pixel_format": -1, "vcodec": "", "path": "../slides/slides_images/slides-9.png", "video_timebase": {"num": 1, "den": 30}, "media_type": "image", "has_video": true, "display_ratio": {"num": 827, "den": 620}, "video_bit_rate": 0}, {"width": 1654, "has_audio": false, "height": 1240, "fps": {"num": 30, "den": 1}, "duration": 86400.0, "channel_layout": 4, "audio_timebase": {"num": 1, "den": 1}, "id": "RV0S0LIZGA", "video_length": "2592000", "channels": 0, "file_size": "8203840", "video_stream_index": -1, "interlaced_frame": false, "pixel_ratio": {"num": 1, "den": 1}, "sample_rate": 0, "acodec": "", "type": "QtImageReader", "audio_stream_index": -1, "audio_bit_rate": 0, "top_field_first": true, "has_single_image": true, "pixel_format": -1, "vcodec": "", "path": "../slides/slides_images/slides-10.png", "video_timebase": {"num": 1, "den": 30}, "media_type": "image", "has_video": true, "display_ratio": {"num": 827, "den": 620}, "video_bit_rate": 0}, {"width": 1654, "has_audio": false, "height": 1240, "fps": {"num": 30, "den": 1}, "duration": 86400.0, "channel_layout": 4, "audio_timebase": {"num": 1, "den": 1}, "id": "QVCA54R8F4", "video_length": "2592000", "channels": 0, "file_size": "8203840", "video_stream_index": -1, "interlaced_frame": false, "pixel_ratio": {"num": 1, "den": 1}, "sample_rate": 0, "acodec": "", "type": "QtImageReader", "audio_stream_index": -1, "audio_bit_rate": 0, "top_field_first": true, "has_single_image": true, "pixel_format": -1, "vcodec": "", "path": "../slides/slides_images/slides-11.png", "video_timebase": {"num": 1, "den": 30}, "media_type": "image", "has_video": true, "display_ratio": {"num": 827, "den": 620}, "video_bit_rate": 0}, {"width": 1654, "has_audio": false, "height": 1240, "fps": {"num": 30, "den": 1}, "duration": 86400.0, "channel_layout": 4, "audio_timebase": {"num": 1, "den": 1}, "id": "IVVZ4GF8KU", "video_length": "2592000", "channels": 0, "file_size": "8203840", "video_stream_index": -1, "interlaced_frame": false, "pixel_ratio": {"num": 1, "den": 1}, "sample_rate": 0, "acodec": "", "type": "QtImageReader", "audio_stream_index": -1, "audio_bit_rate": 0, "top_field_first": true, "has_single_image": true, "pixel_format": -1, "vcodec": "", "path": "../slides/slides_images/slides-12.png", "video_timebase": {"num": 1, "den": 30}, "media_type": "image", "has_video": true, "display_ratio": {"num": 827, "den": 620}, "video_bit_rate": 0}, {"width": 1280, "has_audio": true, "height": 720, "fps": {"num": 24, "den": 1}, "duration": 34.00598526000977, "channel_layout": 3, "audio_timebase": {"num": 1, "den": 44100}, "id": "ILERP6UIKD", "video_length": "816", "channels": 2, "file_size": "39858865", "video_stream_index": 0, "interlaced_frame": false, "pixel_ratio": {"num": 1, "den": 1}, "sample_rate": 44100, "acodec": "ac3", "type": "FFmpegReader", "audio_stream_index": 1, "audio_bit_rate": 192128, "top_field_first": true, "has_single_image": false, "pixel_format": 0, "vcodec": "h264", "path": "../videos_hri/p12VN.mp4", "video_timebase": {"num": 1, "den": 24}, "media_type": "video", "has_video": true, "display_ratio": {"num": 16, "den": 9}, "video_bit_rate": 9353519}, {"width": 720, "has_audio": true, "height": 480, "fps": {"num": 24, "den": 1}, "duration": 210.3331451416016, "channel_layout": 3, "audio_timebase": {"num": 1, "den": 44100}, "id": "AJUZJZ9WJA", "video_length": "5047", "channels": 2, "file_size": "37102812", "video_stream_index": -1, "interlaced_frame": false, "pixel_ratio": {"num": 1, "den": 1}, "sample_rate": 44100, "acodec": "pcm_s16le", "type": "FFmpegReader", "audio_stream_index": 0, "audio_bit_rate": 1411200, "top_field_first": true, "has_single_image": false, "pixel_format": -1, "vcodec": "", "path": "../audio/audio03.wav", "video_timebase": {"num": 1, "den": 24}, "media_type": "audio", "has_video": false, "display_ratio": {"num": 1, "den": 1}, "video_bit_rate": 0}, {"has_audio": true, "height": 480, "fps": {"num": 24, "den": 1}, "duration": 260.0751037597656, "channel_layout": 3, "audio_timebase": {"num": 1, "den": 14112000}, "id": "Z9DQYIHB3T", "pixel_ratio": {"num": 1, "den": 1}, "video_length": "6241", "channels": 2, "file_size": "4161618", "video_stream_index": -1, "interlaced_frame": false, "type": "FFmpegReader", "sample_rate": 44100, "acodec": "mp3", "audio_stream_index": 0, "audio_bit_rate": 128000, "top_field_first": true, "has_single_image": false, "pixel_format": -1, "vcodec": "", "path": "../audio/Alan Walker - Fade [NCS Release]-bM7SZ5SBzyY.mp3", "video_timebase": {"num": 1, "den": 24}, "media_type": "audio", "has_video": false, "display_ratio": {"num": 1, "den": 1}, "width": 720, "video_bit_rate": 0}], "playhead_position": 0, "export_path": "", "sample_rate": 44100, "tick_pixels": 100}